<svg id="Capa_1" data-name="Capa 1" xmlns="http://www.w3.org/2000/svg" xmlns:xlink="http://www.w3.org/1999/xlink" viewBox="0 0 50 50"><defs><style>.cls-1{fill:url(#Безымянный_градиент_2);}.cls-2{fill:url(#Безымянный_градиент_2-2);}.cls-3{fill:url(#Безымянный_градиент_2-3);}.cls-4{fill:url(#Безымянный_градиент_2-4);}.cls-5{fill:url(#Безымянный_градиент_2-5);}</style><linearGradient id="Безымянный_градиент_2" y1="26.67" x2="50" y2="26.67" gradientUnits="userSpaceOnUse"><stop offset="0" stop-color="#188ac7"/><stop offset="1" stop-color="#85b8dc"/></linearGradient><linearGradient id="Безымянный_градиент_2-2" x1="3.91" y1="26.67" x2="46.02" y2="26.67" xlink:href="#Безымянный_градиент_2"/><linearGradient id="Безымянный_градиент_2-3" x1="41.1" y1="29.81" x2="43.08" y2="29.81" xlink:href="#Безымянный_градиент_2"/><linearGradient id="Безымянный_градиент_2-4" x1="15.86" y1="29.31" x2="34.14" y2="29.31" xlink:href="#Безымянный_градиент_2"/><linearGradient id="Безымянный_градиент_2-5" x1="28.42" y1="19.58" x2="30.42" y2="19.58" xlink:href="#Безымянный_градиент_2"/></defs><title>junction2</title><path class="cls-1" d="M48.5,23,28.64,3.17a5.17,5.17,0,0,0-7.28,0L1.5,23a5.17,5.17,0,0,0,0,7.28L21.36,50.16a5.14,5.14,0,0,0,7.28,0L48.5,30.31a5.17,5.17,0,0,0,0-7.28Zm-1.38,5.9L27.26,48.78a3.21,3.21,0,0,1-4.52,0L2.88,28.93a3.21,3.21,0,0,1,0-4.52L22.74,4.55a3.21,3.21,0,0,1,4.52,0L47.12,24.41a3.21,3.21,0,0,1,0,4.52Z" transform="translate(0 -1.67)"/><path class="cls-2" d="M45.74,25.79,25.88,5.93a1.26,1.26,0,0,0-1.76,0L4.26,25.79a1.26,1.26,0,0,0,0,1.75L24.12,47.4a1.26,1.26,0,0,0,1.76,0L40.23,33.05h0l.52-.52a1,1,0,1,0-1.38-1.39l-.52.53h0L25,45.52,6.15,26.67,25,7.82,44.35,27.17a1,1,0,0,0,1.39,0A1,1,0,0,0,45.74,25.79Z" transform="translate(0 -1.67)"/><path class="cls-3" d="M42.79,29.1a1,1,0,0,0-1.38,0l0,0a1,1,0,0,0,0,1.38,1,1,0,0,0,1.38,0l0,0A1,1,0,0,0,42.79,29.1Z" transform="translate(0 -1.67)"/><path class="cls-4" d="M33.16,18.6a1,1,0,0,0-1,1v3.35h-5a1,1,0,0,0-1,1V38.05H23.81V23.91a1,1,0,0,0-1-1h-5V20.56h8.75a1,1,0,0,0,0-2H16.84a1,1,0,0,0-1,1v4.33a1,1,0,0,0,1,1h5V39a1,1,0,0,0,1,1h4.32a1,1,0,0,0,1-1V24.89h5a1,1,0,0,0,1-1V19.58A1,1,0,0,0,33.16,18.6Z" transform="translate(0 -1.67)"/><path class="cls-5" d="M29.44,18.6h0a1,1,0,0,0,0,2h0a1,1,0,1,0,0-2Z" transform="translate(0 -1.67)"/></svg>