<svg id="Layer_1" data-name="Layer 1" xmlns="http://www.w3.org/2000/svg" xmlns:xlink="http://www.w3.org/1999/xlink" viewBox="0 0 49.99 54.93"><defs><style>.cls-1{fill:url(#Безымянный_градиент_2);}.cls-2{fill:url(#Безымянный_градиент_2-2);}.cls-3{fill:url(#Безымянный_градиент_2-3);}.cls-4{fill:url(#Безымянный_градиент_2-4);}.cls-5{fill:url(#Безымянный_градиент_2-5);}.cls-6{fill:url(#Безымянный_градиент_2-6);}.cls-7{fill:url(#Безымянный_градиент_2-7);}.cls-8{fill:url(#Безымянный_градиент_2-8);}.cls-9{fill:url(#Безымянный_градиент_2-9);}.cls-10{fill:url(#Безымянный_градиент_2-10);}.cls-11{fill:url(#Безымянный_градиент_2-11);}.cls-12{fill:url(#Безымянный_градиент_2-12);}.cls-13{fill:url(#Безымянный_градиент_2-13);}.cls-14{fill:url(#Безымянный_градиент_2-14);}.cls-15{fill:url(#Безымянный_градиент_2-15);}.cls-16{fill:url(#Безымянный_градиент_2-16);}.cls-17{fill:url(#Безымянный_градиент_2-17);}.cls-18{fill:url(#Безымянный_градиент_2-18);}.cls-19{fill:url(#Безымянный_градиент_2-19);}.cls-20{fill:url(#Безымянный_градиент_2-20);}.cls-21{fill:url(#Безымянный_градиент_2-21);}.cls-22{fill:url(#Безымянный_градиент_2-22);}.cls-23{fill:url(#Безымянный_градиент_2-23);}.cls-24{fill:url(#Безымянный_градиент_2-24);}.cls-25{fill:url(#Безымянный_градиент_2-25);}.cls-26{fill:url(#Безымянный_градиент_2-26);}.cls-27{fill:url(#Безымянный_градиент_2-27);}.cls-28{fill:url(#Безымянный_градиент_2-28);}.cls-29{fill:url(#Безымянный_градиент_2-29);}.cls-30{fill:url(#Безымянный_градиент_2-30);}</style><linearGradient id="Безымянный_градиент_2" x1="0.29" y1="27.46" x2="50.28" y2="27.46" gradientUnits="userSpaceOnUse"><stop offset="0" stop-color="#188ac7"/><stop offset="1" stop-color="#85b8dc"/></linearGradient><linearGradient id="Безымянный_градиент_2-2" x1="24.98" y1="41.66" x2="26.83" y2="41.66" xlink:href="#Безымянный_градиент_2"/><linearGradient id="Безымянный_градиент_2-3" x1="28.68" y1="41.66" x2="30.53" y2="41.66" xlink:href="#Безымянный_градиент_2"/><linearGradient id="Безымянный_градиент_2-4" x1="32.38" y1="41.66" x2="34.24" y2="41.66" xlink:href="#Безымянный_градиент_2"/><linearGradient id="Безымянный_градиент_2-5" x1="33.62" y1="10.18" x2="35.47" y2="10.18" xlink:href="#Безымянный_градиент_2"/><linearGradient id="Безымянный_градиент_2-6" x1="37.32" y1="10.18" x2="39.17" y2="10.18" xlink:href="#Безымянный_градиент_2"/><linearGradient id="Безымянный_градиент_2-7" x1="41.02" y1="10.18" x2="42.88" y2="10.18" xlink:href="#Безымянный_градиент_2"/><linearGradient id="Безымянный_градиент_2-8" x1="33.62" y1="16.35" x2="35.47" y2="16.35" xlink:href="#Безымянный_градиент_2"/><linearGradient id="Безымянный_градиент_2-9" x1="37.32" y1="16.35" x2="39.17" y2="16.35" xlink:href="#Безымянный_градиент_2"/><linearGradient id="Безымянный_градиент_2-10" x1="41.02" y1="16.35" x2="42.88" y2="16.35" xlink:href="#Безымянный_градиент_2"/><linearGradient id="Безымянный_градиент_2-11" x1="33.62" y1="22.53" x2="35.47" y2="22.53" xlink:href="#Безымянный_градиент_2"/><linearGradient id="Безымянный_градиент_2-12" x1="37.32" y1="22.53" x2="39.17" y2="22.53" xlink:href="#Безымянный_градиент_2"/><linearGradient id="Безымянный_градиент_2-13" x1="41.02" y1="22.53" x2="42.88" y2="22.53" xlink:href="#Безымянный_градиент_2"/><linearGradient id="Безымянный_градиент_2-14" x1="7.7" y1="24.99" x2="9.55" y2="24.99" xlink:href="#Безымянный_градиент_2"/><linearGradient id="Безымянный_градиент_2-15" x1="11.4" y1="24.99" x2="13.25" y2="24.99" xlink:href="#Безымянный_градиент_2"/><linearGradient id="Безымянный_градиент_2-16" x1="15.1" y1="24.99" x2="16.96" y2="24.99" xlink:href="#Безымянный_градиент_2"/><linearGradient id="Безымянный_градиент_2-17" x1="7.7" y1="31.17" x2="9.55" y2="31.17" xlink:href="#Безымянный_градиент_2"/><linearGradient id="Безымянный_градиент_2-18" x1="11.4" y1="31.17" x2="13.25" y2="31.17" xlink:href="#Безымянный_градиент_2"/><linearGradient id="Безымянный_градиент_2-19" x1="15.1" y1="31.17" x2="16.96" y2="31.17" xlink:href="#Безымянный_градиент_2"/><linearGradient id="Безымянный_градиент_2-20" x1="7.7" y1="37.34" x2="9.55" y2="37.34" xlink:href="#Безымянный_градиент_2"/><linearGradient id="Безымянный_градиент_2-21" x1="11.4" y1="37.34" x2="13.25" y2="37.34" xlink:href="#Безымянный_градиент_2"/><linearGradient id="Безымянный_градиент_2-22" x1="15.1" y1="37.34" x2="16.96" y2="37.34" xlink:href="#Безымянный_градиент_2"/><linearGradient id="Безымянный_градиент_2-23" x1="7.7" y1="43.51" x2="9.55" y2="43.51" xlink:href="#Безымянный_градиент_2"/><linearGradient id="Безымянный_градиент_2-24" x1="11.4" y1="43.51" x2="13.25" y2="43.51" xlink:href="#Безымянный_градиент_2"/><linearGradient id="Безымянный_градиент_2-25" x1="15.1" y1="43.51" x2="16.96" y2="43.51" xlink:href="#Безымянный_градиент_2"/><linearGradient id="Безымянный_градиент_2-26" x1="41.02" y1="28.7" x2="42.88" y2="28.7" xlink:href="#Безымянный_градиент_2"/><linearGradient id="Безымянный_градиент_2-27" x1="41.02" y1="34.87" x2="42.88" y2="34.87" xlink:href="#Безымянный_градиент_2"/><linearGradient id="Безымянный_градиент_2-28" x1="41.02" y1="41.04" x2="42.88" y2="41.04" xlink:href="#Безымянный_градиент_2"/><linearGradient id="Безымянный_градиент_2-29" x1="41.02" y1="47.21" x2="42.88" y2="47.21" xlink:href="#Безымянный_градиент_2"/><linearGradient id="Безымянный_градиент_2-30" x1="16.34" y1="14.5" x2="25.6" y2="14.5" xlink:href="#Безымянный_градиент_2"/></defs><title>skyline2</title><path class="cls-1" d="M49.36,53.07H47.81V4.63a.93.93,0,0,0-.92-.93H29.61a.93.93,0,0,0-.93.93v4H26.83v-4a.93.93,0,0,0-.93-.93h-4V.93A.93.93,0,1,0,20,.93V3.7H16a.93.93,0,0,0-.93.93v4H12.33a.93.93,0,0,0-.93.93v7.71H3.69a.93.93,0,0,0-.93.93V53.07H1.22a.93.93,0,0,0,0,1.86H49.36a.93.93,0,0,0,0-1.86ZM17,5.55h8V8.64H17ZM13.87,53.07h-.62V51.53a.93.93,0,0,0-1.85,0v1.54h-.62V50h3.09ZM20,29.31V53.07H15.72v-4a.92.92,0,0,0-.92-.92H9.86a.93.93,0,0,0-.93.92v4H4.61V19.13H20V29.31Zm.93-12H13.25V10.49H28.68v17.9H21.89V25.3h2.78a.93.93,0,1,0,0-1.85H21.89V20.37h2.78a.93.93,0,0,0,0-1.86H21.89v-.3A.92.92,0,0,0,21,17.28ZM37.32,53.07H21.89V30.24H37.32Zm8.64,0H39.17v-25a.93.93,0,1,0-1.85,0v.31H35.47v-.31a.93.93,0,1,0-1.85,0v.31H30.53V5.55H46V53.07Z" transform="translate(-0.29)"/><path class="cls-2" d="M25.9,51.22a.92.92,0,0,0,.93-.92V33A.93.93,0,1,0,25,33V50.3A.92.92,0,0,0,25.9,51.22Z" transform="translate(-0.29)"/><path class="cls-3" d="M29.61,51.22a.92.92,0,0,0,.92-.92V33a.93.93,0,1,0-1.85,0V50.3A.93.93,0,0,0,29.61,51.22Z" transform="translate(-0.29)"/><path class="cls-4" d="M33.31,51.22a.93.93,0,0,0,.93-.92V33a.93.93,0,0,0-1.86,0V50.3A.93.93,0,0,0,33.31,51.22Z" transform="translate(-0.29)"/><path class="cls-5" d="M34.54,11.73a.93.93,0,0,0,.93-.93V9.57a.93.93,0,1,0-1.85,0V10.8A.93.93,0,0,0,34.54,11.73Z" transform="translate(-0.29)"/><path class="cls-6" d="M38.25,11.73a.93.93,0,0,0,.92-.93V9.57a.93.93,0,1,0-1.85,0V10.8A.93.93,0,0,0,38.25,11.73Z" transform="translate(-0.29)"/><path class="cls-7" d="M42,11.73a.93.93,0,0,0,.93-.93V9.57a.93.93,0,0,0-1.86,0V10.8A.93.93,0,0,0,42,11.73Z" transform="translate(-0.29)"/><path class="cls-8" d="M34.54,17.9a.93.93,0,0,0,.93-.93V15.74a.93.93,0,1,0-1.85,0V17A.93.93,0,0,0,34.54,17.9Z" transform="translate(-0.29)"/><path class="cls-9" d="M38.25,17.9a.93.93,0,0,0,.92-.93V15.74a.93.93,0,1,0-1.85,0V17A.93.93,0,0,0,38.25,17.9Z" transform="translate(-0.29)"/><path class="cls-10" d="M42,17.9a.93.93,0,0,0,.93-.93V15.74a.93.93,0,0,0-1.86,0V17A.93.93,0,0,0,42,17.9Z" transform="translate(-0.29)"/><path class="cls-11" d="M34.54,24.07a.93.93,0,0,0,.93-.93V21.91a.93.93,0,1,0-1.85,0v1.23A.93.93,0,0,0,34.54,24.07Z" transform="translate(-0.29)"/><path class="cls-12" d="M38.25,24.07a.93.93,0,0,0,.92-.93V21.91a.93.93,0,1,0-1.85,0v1.23A.93.93,0,0,0,38.25,24.07Z" transform="translate(-0.29)"/><path class="cls-13" d="M42,24.07a.93.93,0,0,0,.93-.93V21.91a.93.93,0,0,0-1.86,0v1.23A.93.93,0,0,0,42,24.07Z" transform="translate(-0.29)"/><path class="cls-14" d="M8.62,26.54a.93.93,0,0,0,.93-.93V24.38a.93.93,0,1,0-1.85,0v1.23A.93.93,0,0,0,8.62,26.54Z" transform="translate(-0.29)"/><path class="cls-15" d="M12.33,26.54a.93.93,0,0,0,.92-.93V24.38a.93.93,0,1,0-1.85,0v1.23A.93.93,0,0,0,12.33,26.54Z" transform="translate(-0.29)"/><path class="cls-16" d="M16,26.54a.93.93,0,0,0,.93-.93V24.38a.93.93,0,1,0-1.86,0v1.23A.93.93,0,0,0,16,26.54Z" transform="translate(-0.29)"/><path class="cls-17" d="M8.62,32.71a.93.93,0,0,0,.93-.93V30.55a.93.93,0,1,0-1.85,0v1.23A.93.93,0,0,0,8.62,32.71Z" transform="translate(-0.29)"/><path class="cls-18" d="M12.33,32.71a.93.93,0,0,0,.92-.93V30.55a.93.93,0,1,0-1.85,0v1.23A.93.93,0,0,0,12.33,32.71Z" transform="translate(-0.29)"/><path class="cls-19" d="M16,32.71a.93.93,0,0,0,.93-.93V30.55a.93.93,0,1,0-1.86,0v1.23A.93.93,0,0,0,16,32.71Z" transform="translate(-0.29)"/><path class="cls-20" d="M8.62,38.88A.92.92,0,0,0,9.55,38V36.72a.93.93,0,1,0-1.85,0V38A.92.92,0,0,0,8.62,38.88Z" transform="translate(-0.29)"/><path class="cls-21" d="M12.33,38.88a.92.92,0,0,0,.92-.93V36.72a.93.93,0,1,0-1.85,0V38A.93.93,0,0,0,12.33,38.88Z" transform="translate(-0.29)"/><path class="cls-22" d="M16,38.88A.93.93,0,0,0,17,38V36.72a.93.93,0,0,0-1.86,0V38A.93.93,0,0,0,16,38.88Z" transform="translate(-0.29)"/><path class="cls-23" d="M8.62,45.05a.92.92,0,0,0,.93-.92V42.89a.93.93,0,0,0-1.85,0v1.24A.92.92,0,0,0,8.62,45.05Z" transform="translate(-0.29)"/><path class="cls-24" d="M12.33,45.05a.92.92,0,0,0,.92-.92V42.89a.93.93,0,0,0-1.85,0v1.24A.93.93,0,0,0,12.33,45.05Z" transform="translate(-0.29)"/><path class="cls-25" d="M16,45.05a.93.93,0,0,0,.93-.92V42.89a.93.93,0,0,0-1.86,0v1.24A.93.93,0,0,0,16,45.05Z" transform="translate(-0.29)"/><path class="cls-26" d="M42,30.24a.93.93,0,0,0,.93-.93V28.08a.93.93,0,0,0-1.86,0v1.23A.93.93,0,0,0,42,30.24Z" transform="translate(-0.29)"/><path class="cls-27" d="M42,36.41a.93.93,0,0,0,.93-.92V34.25a.93.93,0,0,0-1.86,0v1.24A.93.93,0,0,0,42,36.41Z" transform="translate(-0.29)"/><path class="cls-28" d="M42,42.58a.93.93,0,0,0,.93-.92V40.42a.93.93,0,0,0-1.86,0v1.24A.93.93,0,0,0,42,42.58Z" transform="translate(-0.29)"/><path class="cls-29" d="M42,48.75a.93.93,0,0,0,.93-.92V46.59a.93.93,0,0,0-1.86,0v1.24A.93.93,0,0,0,42,48.75Z" transform="translate(-0.29)"/><path class="cls-30" d="M25.6,14.5a.93.93,0,0,0-.93-.92H17.26a.93.93,0,0,0,0,1.85h7.41A.93.93,0,0,0,25.6,14.5Z" transform="translate(-0.29)"/></svg>