<?xml version="1.0" encoding="utf-8"?>
<!-- Generator: Adobe Illustrator 22.1.0, SVG Export Plug-In . SVG Version: 6.00 Build 0)  -->
<svg version="1.1" id="Capa_1" xmlns="http://www.w3.org/2000/svg" xmlns:xlink="http://www.w3.org/1999/xlink" x="0px" y="0px"
	 viewBox="0 0 56 48.8" style="enable-background:new 0 0 56 48.8;" xml:space="preserve">
<style type="text/css">
	.st0{fill:url(#SVGID_1_);}
</style>
<linearGradient id="SVGID_1_" gradientUnits="userSpaceOnUse" x1="3.1356" y1="24.8372" x2="53.1335" y2="24.8372">
	<stop  offset="0" style="stop-color:#188AC7"/>
	<stop  offset="1" style="stop-color:#85B8DC"/>
</linearGradient>
<path class="st0" d="M52,22.6c1-1,1.3-2.4,0.9-3.7c-0.4-1.3-1.5-2.2-2.9-2.4L38,14.7c-0.5-0.1-1-0.4-1.2-0.9l-5.4-11
	c-0.6-1.2-1.8-2-3.2-2c-1.4,0-2.6,0.8-3.2,2l-5.4,11c-0.2,0.5-0.7,0.8-1.2,0.9L6.2,16.5c-1.4,0.2-2.5,1.1-2.9,2.4
	c-0.4,1.3-0.1,2.7,0.9,3.7l8.8,8.5c0.4,0.4,0.5,0.9,0.5,1.4l-2.1,12.1c-0.2,1.4,0.3,2.7,1.4,3.5c1.1,0.8,2.6,0.9,3.8,0.3l10.8-5.7
	c0.5-0.2,1-0.2,1.5,0l10.8,5.7c0.5,0.3,1.1,0.4,1.7,0.4c0.7,0,1.5-0.2,2.1-0.7c1.1-0.8,1.7-2.2,1.4-3.5l-2.1-12.1
	c-0.1-0.5,0.1-1,0.5-1.4L52,22.6z M40.9,32.9l2.1,12.1c0.1,0.6-0.1,1.2-0.6,1.5c-0.5,0.4-1.1,0.4-1.7,0.1l-10.8-5.7
	c-0.5-0.3-1.1-0.4-1.7-0.4s-1.1,0.1-1.7,0.4l-10.8,5.7c-0.5,0.3-1.2,0.2-1.7-0.1c-0.5-0.4-0.7-0.9-0.6-1.5l2.1-12.1
	c0.2-1.2-0.2-2.4-1-3.2l-8.8-8.5c-0.4-0.4-0.6-1-0.4-1.6c0.2-0.6,0.7-1,1.3-1.1l12.1-1.8c1.2-0.2,2.2-0.9,2.7-2l5.4-11
	c0.3-0.6,0.8-0.9,1.4-0.9c0.6,0,1.1,0.3,1.4,0.9l5.4,11c0.5,1.1,1.5,1.8,2.7,2l12.1,1.8c0.6,0.1,1.1,0.5,1.3,1.1
	c0.2,0.6,0,1.2-0.4,1.6l-8.8,8.5C41,30.5,40.7,31.7,40.9,32.9z"/>
</svg>
