<svg id="Слой_1" data-name="Слой 1" xmlns="http://www.w3.org/2000/svg" xmlns:xlink="http://www.w3.org/1999/xlink" viewBox="0 0 39.05 39.1"><defs><style>.cls-1{fill:url(#Безымянный_градиент_2);}.cls-2{fill:url(#Безымянный_градиент_2-2);}</style><linearGradient id="Безымянный_градиент_2" x1="9.23" y1="16.19" x2="34.28" y2="16.19" gradientUnits="userSpaceOnUse"><stop offset="0" stop-color="#188ac7"/><stop offset="1" stop-color="#85b8dc"/></linearGradient><linearGradient id="Безымянный_градиент_2-2" x1="0.13" y1="19.55" x2="39.18" y2="19.55" xlink:href="#Безымянный_градиент_2"/></defs><title>correct 2</title><path class="cls-1" d="M11.58,18.4a1.38,1.38,0,0,0-1.95,2L16,26.71a1.36,1.36,0,0,0,1,.41H17a1.54,1.54,0,0,0,1-.51L34,7.53a1.38,1.38,0,1,0-2.12-1.78l-15,17.94Z" transform="translate(-0.13)"/><path class="cls-2" d="M30,3a19.57,19.57,0,1,0,6.19,6.19,1.36,1.36,0,0,0-1.88-.44,1.38,1.38,0,0,0-.44,1.89,16.75,16.75,0,1,1-5.32-5.32A1.37,1.37,0,1,0,30,3Z" transform="translate(-0.13)"/></svg>