<?xml version="1.0" encoding="utf-8"?>
<!-- Generator: Adobe Illustrator 22.1.0, SVG Export Plug-In . SVG Version: 6.00 Build 0)  -->
<svg version="1.1" id="Capa_1" xmlns="http://www.w3.org/2000/svg" xmlns:xlink="http://www.w3.org/1999/xlink" x="0px" y="0px"
	 viewBox="0 0 65 64.5" style="enable-background:new 0 0 65 64.5;" xml:space="preserve">
<style type="text/css">
	.st0{fill:url(#SVGID_1_);}
	.st1{fill:url(#SVGID_2_);}
	.st2{fill:url(#SVGID_3_);}
	.st3{fill:url(#SVGID_4_);}
	.st4{fill:url(#SVGID_5_);}
	.st5{fill:none;stroke:#E8E8E8;stroke-miterlimit:10;}
</style>
<title>junction2</title>
<linearGradient id="SVGID_1_" gradientUnits="userSpaceOnUse" x1="14.4054" y1="15.2579" x2="50.5946" y2="15.2579" gradientTransform="matrix(1 0 0 -1 0 47.9967)">
	<stop  offset="0" style="stop-color:#188AC7"/>
	<stop  offset="1" style="stop-color:#85B8DC"/>
</linearGradient>
<path class="st0" d="M49.5,30.1L35.1,15.7c-1.5-1.4-3.8-1.4-5.3,0L15.5,30.1c-1.4,1.5-1.4,3.8,0,5.3l14.4,14.4
	c1.5,1.5,3.8,1.5,5.3,0c0,0,0,0,0,0l14.4-14.4C51,33.9,51,31.6,49.5,30.1L49.5,30.1z M48.5,34.4L34.1,48.7c-0.9,0.9-2.4,0.9-3.3,0
	L16.5,34.4c-0.9-0.9-0.9-2.4,0-3.3l14.4-14.4c0.9-0.9,2.4-0.9,3.3,0l14.4,14.4C49.4,32,49.4,33.5,48.5,34.4L48.5,34.4z"/>
<linearGradient id="SVGID_2_" gradientUnits="userSpaceOnUse" x1="17.2321" y1="15.2623" x2="47.7172" y2="15.2623" gradientTransform="matrix(1 0 0 -1 0 47.9967)">
	<stop  offset="0" style="stop-color:#188AC7"/>
	<stop  offset="1" style="stop-color:#85B8DC"/>
</linearGradient>
<path class="st1" d="M47.5,32.1L33.1,17.7c-0.4-0.3-0.9-0.3-1.3,0L17.5,32.1c-0.3,0.4-0.3,0.9,0,1.3l14.4,14.4
	c0.4,0.3,0.9,0.3,1.3,0l10.4-10.4l0,0l0.4-0.4c0.3-0.2,0.4-0.7,0.2-1s-0.7-0.4-1-0.2C43,35.8,43,35.9,42.9,36l-0.4,0.4l0,0l-10,10
	L18.9,32.7l13.6-13.6l14,14c0.3,0.3,0.7,0.3,1,0C47.8,32.8,47.8,32.4,47.5,32.1z"/>
<linearGradient id="SVGID_3_" gradientUnits="userSpaceOnUse" x1="44.1536" y1="13.0004" x2="45.5868" y2="13.0004" gradientTransform="matrix(1 0 0 -1 0 47.9967)">
	<stop  offset="0" style="stop-color:#188AC7"/>
	<stop  offset="1" style="stop-color:#85B8DC"/>
</linearGradient>
<path class="st2" d="M45.4,34.5c-0.3-0.3-0.7-0.3-1,0l0,0c-0.3,0.3-0.3,0.7,0,1c0.3,0.3,0.7,0.3,1,0l0,0
	C45.6,35.2,45.6,34.8,45.4,34.5z"/>
<linearGradient id="SVGID_4_" gradientUnits="userSpaceOnUse" x1="25.8842" y1="13.3695" x2="39.1158" y2="13.3695" gradientTransform="matrix(1 0 0 -1 0 47.9967)">
	<stop  offset="0" style="stop-color:#188AC7"/>
	<stop  offset="1" style="stop-color:#85B8DC"/>
</linearGradient>
<path class="st3" d="M38.4,26.9c-0.4,0-0.7,0.3-0.7,0.7V30h-3.6c-0.4,0-0.7,0.3-0.7,0.7V41h-1.7V30.7c0-0.4-0.3-0.7-0.7-0.7h-3.6
	v-1.7h6.3c0.4,0,0.7-0.3,0.7-0.7s-0.3-0.7-0.7-0.7h-7c-0.4,0-0.7,0.3-0.7,0.7v3.1c0,0.4,0.3,0.7,0.7,0.7h3.6v10.2
	c0,0.4,0.3,0.7,0.7,0.7h3.1c0.4,0,0.7-0.3,0.7-0.7V31.4h3.6c0.4,0,0.7-0.3,0.7-0.7v-3.1C39.1,27.2,38.8,26.9,38.4,26.9z"/>
<linearGradient id="SVGID_5_" gradientUnits="userSpaceOnUse" x1="34.9755" y1="20.3762" x2="36.4231" y2="20.3762" gradientTransform="matrix(1 0 0 -1 0 47.9967)">
	<stop  offset="0" style="stop-color:#188AC7"/>
	<stop  offset="1" style="stop-color:#85B8DC"/>
</linearGradient>
<path class="st4" d="M35.7,26.9L35.7,26.9c-0.4,0-0.7,0.3-0.7,0.7s0.3,0.7,0.7,0.7l0,0c0.4,0,0.7-0.3,0.7-0.7S36.1,26.9,35.7,26.9z"
	/>
<circle class="st5" cx="32.4" cy="32.4" r="31.1"/>
</svg>
