<?xml version="1.0" encoding="utf-8"?>
<!-- Generator: Adobe Illustrator 22.1.0, SVG Export Plug-In . SVG Version: 6.00 Build 0)  -->
<svg version="1.1" id="Слой_1" xmlns="http://www.w3.org/2000/svg" xmlns:xlink="http://www.w3.org/1999/xlink" x="0px" y="0px"
	 viewBox="0 0 68.4 66.3" style="enable-background:new 0 0 68.4 66.3;" xml:space="preserve">
<style type="text/css">
	.st0{fill:url(#SVGID_1_);}
	.st1{fill:url(#SVGID_2_);}
	.st2{fill:url(#SVGID_3_);}
	.st3{fill:url(#SVGID_4_);}
	.st4{fill:none;stroke:#E8E8E8;stroke-miterlimit:10;}
</style>
<title>layout3</title>
<linearGradient id="SVGID_1_" gradientUnits="userSpaceOnUse" x1="16.3333" y1="43.84" x2="32.6548" y2="43.84" gradientTransform="matrix(1 0 0 -1 0 66)">
	<stop  offset="0" style="stop-color:#188AC7"/>
	<stop  offset="1" style="stop-color:#85B8DC"/>
</linearGradient>
<path class="st0" d="M17.6,30.3h13.7c0.7,0,1.3-0.5,1.3-1.2c0,0,0-0.1,0-0.1V15.3c0-0.7-0.6-1.3-1.2-1.3c0,0,0,0-0.1,0H17.6
	c-0.7,0-1.3,0.6-1.3,1.2c0,0,0,0,0,0V29C16.3,29.7,16.9,30.3,17.6,30.3z M18.9,16.5h11.2v11.2H18.9V16.5z"/>
<linearGradient id="SVGID_2_" gradientUnits="userSpaceOnUse" x1="36.1332" y1="43.86" x2="52.4435" y2="43.86" gradientTransform="matrix(1 0 0 -1 0 66)">
	<stop  offset="0" style="stop-color:#188AC7"/>
	<stop  offset="1" style="stop-color:#85B8DC"/>
</linearGradient>
<path class="st1" d="M52.4,15.3c0-0.7-0.6-1.3-1.2-1.3c0,0,0,0,0,0H37.4c-0.7,0-1.3,0.6-1.3,1.2c0,0,0,0,0,0V29
	c0,0.7,0.5,1.3,1.2,1.3c0,0,0,0,0,0h13.8c0.7,0,1.3-0.6,1.3-1.2c0,0,0,0,0,0V15.3z M49.9,27.8H38.7V16.5h11.2V27.8z"/>
<linearGradient id="SVGID_3_" gradientUnits="userSpaceOnUse" x1="16.3333" y1="24.045" x2="32.6533" y2="24.045" gradientTransform="matrix(1 0 0 -1 0 66)">
	<stop  offset="0" style="stop-color:#188AC7"/>
	<stop  offset="1" style="stop-color:#85B8DC"/>
</linearGradient>
<path class="st2" d="M17.6,50.1h13.7c0.7,0,1.3-0.5,1.3-1.2c0,0,0,0,0,0V35.1c0-0.7-0.6-1.3-1.2-1.3c0,0,0,0,0,0H17.6
	c-0.7,0-1.3,0.6-1.3,1.2c0,0,0,0,0,0v13.8C16.3,49.5,16.9,50.1,17.6,50.1z M18.9,36.3h11.2v11.2H18.9V36.3z"/>
<linearGradient id="SVGID_4_" gradientUnits="userSpaceOnUse" x1="36.1333" y1="24.045" x2="52.4434" y2="24.045" gradientTransform="matrix(1 0 0 -1 0 66)">
	<stop  offset="0" style="stop-color:#188AC7"/>
	<stop  offset="1" style="stop-color:#85B8DC"/>
</linearGradient>
<path class="st3" d="M51.2,33.8H37.4c-0.7,0-1.3,0.6-1.3,1.2c0,0,0,0,0,0v13.8c0,0.7,0.6,1.3,1.2,1.3c0,0,0,0,0,0h13.8
	c0.7,0,1.3-0.6,1.3-1.2c0,0,0,0,0,0V35.1C52.4,34.4,51.9,33.8,51.2,33.8z M49.9,47.6H38.7V36.3h11.2V47.6z"/>
<circle class="st4" cx="34.8" cy="33.4" r="31.1"/>
</svg>
