<?xml version="1.0" encoding="utf-8"?>
<!-- Generator: Adobe Illustrator 22.1.0, SVG Export Plug-In . SVG Version: 6.00 Build 0)  -->
<svg version="1.1" id="Capa_1" xmlns="http://www.w3.org/2000/svg" xmlns:xlink="http://www.w3.org/1999/xlink" x="0px" y="0px"
	 viewBox="0 0 65 64.5" style="enable-background:new 0 0 65 64.5;" xml:space="preserve">
<style type="text/css">
	.st0{fill:url(#SVGID_1_);}
	.st1{fill:url(#SVGID_2_);}
	.st2{fill:url(#SVGID_3_);}
	.st3{fill:url(#SVGID_4_);}
	.st4{fill:none;stroke:#E8E8E8;stroke-miterlimit:10;}
</style>
<title>ruble3</title>
<linearGradient id="SVGID_1_" gradientUnits="userSpaceOnUse" x1="31.27" y1="1511.9033" x2="32.67" y2="1511.9033" gradientTransform="matrix(1 0 0 1 0 -1493.9199)">
	<stop  offset="0" style="stop-color:#188AC7"/>
	<stop  offset="1" style="stop-color:#85B8DC"/>
</linearGradient>
<path class="st0" d="M32,18.6c0.4,0,0.7-0.3,0.7-0.7l0,0c-0.1-0.4-0.5-0.6-0.9-0.6c-0.3,0.1-0.5,0.2-0.6,0.5l0,0
	C31.3,18.2,31.6,18.5,32,18.6z"/>
<linearGradient id="SVGID_2_" gradientUnits="userSpaceOnUse" x1="25.65" y1="1525.4534" x2="38.29" y2="1525.4534" gradientTransform="matrix(1 0 0 1 0 -1493.9199)">
	<stop  offset="0" style="stop-color:#188AC7"/>
	<stop  offset="1" style="stop-color:#85B8DC"/>
</linearGradient>
<path class="st1" d="M34.1,31.5c2.3,0,4.2-1.8,4.2-4.2c0-2.3-1.8-4.2-4.2-4.2l0,0h-6.3c-0.4,0-0.7,0.3-0.7,0.6v0.1v6.3h-0.7
	c-0.4-0.1-0.8,0.2-0.9,0.6l0,0c-0.1,0.4,0.2,0.8,0.6,0.9l0,0h1v2.8h-0.7c-0.4,0-0.7,0.3-0.7,0.7s0.3,0.7,0.7,0.7h0.7v3.5
	c0.1,0.4,0.5,0.6,0.9,0.6c0.3-0.1,0.5-0.3,0.6-0.6v-3.5h4.9c0.4,0,0.7-0.3,0.7-0.7c0-0.4-0.3-0.7-0.7-0.7h-4.9v-2.8L34.1,31.5
	L34.1,31.5z M28.5,24.5h5.6c1.5-0.1,2.9,1.1,3,2.6c0.1,1.5-1.1,2.9-2.6,3c-0.1,0-0.2,0-0.3,0h-5.6v-5.6H28.5z"/>
<linearGradient id="SVGID_3_" gradientUnits="userSpaceOnUse" x1="14" y1="1524.7533" x2="49.94" y2="1524.7533" gradientTransform="matrix(1 0 0 1 0 -1493.9199)">
	<stop  offset="0" style="stop-color:#188AC7"/>
	<stop  offset="1" style="stop-color:#85B8DC"/>
</linearGradient>
<path class="st2" d="M32,48.8c9.9-0.2,17.8-8.1,18-18c-0.2-9.9-8.1-17.8-18-18C22.1,13,14.1,21,14,30.9C14.2,40.7,22.1,48.7,32,48.8
	z M32,14.3c9,0.2,16.3,7.5,16.6,16.6c-0.2,9-7.5,16.3-16.6,16.6c-9-0.3-16.3-7.6-16.6-16.6C15.7,21.8,23,14.5,32,14.3z"/>
<linearGradient id="SVGID_4_" gradientUnits="userSpaceOnUse" x1="18.21" y1="1524.9534" x2="45.71" y2="1524.9534" gradientTransform="matrix(1 0 0 1 0 -1493.9199)">
	<stop  offset="0" style="stop-color:#188AC7"/>
	<stop  offset="1" style="stop-color:#85B8DC"/>
</linearGradient>
<path class="st3" d="M32,44.6c7.5-0.2,13.6-6.2,13.8-13.8C45.6,24.5,41.2,19,35,17.5c-0.4-0.1-0.7,0.1-0.9,0.5
	c-0.1,0.4,0.1,0.7,0.5,0.9c5.6,1.4,9.6,6.3,9.7,12.1c-0.2,6.7-5.6,12.1-12.4,12.3c-6.8-0.2-12.2-5.6-12.4-12.4
	c0.3-5.8,4.2-10.7,9.8-12.1c0.4-0.2,0.5-0.6,0.4-0.9c0,0,0,0,0-0.1c-0.1-0.2-0.4-0.4-0.6-0.4c-6.3,1.5-10.7,7-10.8,13.4
	C18.3,38.4,24.4,44.5,32,44.6z"/>
<circle class="st4" cx="32.4" cy="32.2" r="31.1"/>
</svg>
