<?xml version="1.0" encoding="utf-8"?>
<!-- Generator: Adobe Illustrator 22.1.0, SVG Export Plug-In . SVG Version: 6.00 Build 0)  -->
<svg version="1.1" id="Layer_1" xmlns="http://www.w3.org/2000/svg" xmlns:xlink="http://www.w3.org/1999/xlink" x="0px" y="0px"
	 viewBox="0 0 64.3 65.8" style="enable-background:new 0 0 64.3 65.8;" xml:space="preserve">
<style type="text/css">
	.st0{fill:url(#SVGID_1_);}
	.st1{fill:url(#SVGID_2_);}
	.st2{fill:url(#SVGID_3_);}
	.st3{fill:url(#SVGID_4_);}
	.st4{fill:url(#SVGID_5_);}
	.st5{fill:url(#SVGID_6_);}
	.st6{fill:url(#SVGID_7_);}
	.st7{fill:url(#SVGID_8_);}
	.st8{fill:url(#SVGID_9_);}
	.st9{fill:url(#SVGID_10_);}
	.st10{fill:url(#SVGID_11_);}
	.st11{fill:url(#SVGID_12_);}
	.st12{fill:url(#SVGID_13_);}
	.st13{fill:url(#SVGID_14_);}
	.st14{fill:url(#SVGID_15_);}
	.st15{fill:url(#SVGID_16_);}
	.st16{fill:url(#SVGID_17_);}
	.st17{fill:url(#SVGID_18_);}
	.st18{fill:url(#SVGID_19_);}
	.st19{fill:url(#SVGID_20_);}
	.st20{fill:url(#SVGID_21_);}
	.st21{fill:url(#SVGID_22_);}
	.st22{fill:url(#SVGID_23_);}
	.st23{fill:url(#SVGID_24_);}
	.st24{fill:url(#SVGID_25_);}
	.st25{fill:url(#SVGID_26_);}
	.st26{fill:url(#SVGID_27_);}
	.st27{fill:url(#SVGID_28_);}
	.st28{fill:url(#SVGID_29_);}
	.st29{fill:url(#SVGID_30_);}
	.st30{fill:none;stroke:#E8E8E8;stroke-miterlimit:10;}
</style>
<title>skyline3</title>
<linearGradient id="SVGID_1_" gradientUnits="userSpaceOnUse" x1="13.9567" y1="798.0717" x2="50.0167" y2="798.0717" gradientTransform="matrix(1 0 0 1 -0.29 -766.59)">
	<stop  offset="0" style="stop-color:#188AC7"/>
	<stop  offset="1" style="stop-color:#85B8DC"/>
</linearGradient>
<path class="st0" d="M49.1,50h-1.1V15c0-0.4-0.3-0.7-0.7-0.7H34.8c-0.4,0-0.7,0.3-0.7,0.7l0,0l0,0v2.9h-1.3V15
	c0-0.4-0.3-0.7-0.7-0.7l0,0h-2.9v-2c0-0.4-0.3-0.7-0.7-0.7c-0.4,0-0.7,0.3-0.7,0.7c0,0,0,0,0,0v2H25c-0.4,0-0.7,0.3-0.7,0.7l0,0l0,0
	v2.9h-2c-0.4,0-0.7,0.3-0.7,0.7l0,0v5.6h-5.5c-0.4,0-0.7,0.3-0.7,0.7l0,0l0,0V50h-1.1c-0.4,0-0.7,0.3-0.7,0.7c0,0.4,0.3,0.7,0.7,0.7
	h34.7c0.4,0,0.7-0.3,0.7-0.7C49.7,50.3,49.4,50,49.1,50z M25.7,15.7h5.8v2.2h-5.8V15.7z M23.5,50H23v-1.1c0-0.4-0.4-0.6-0.7-0.6
	c0,0,0,0,0,0c-0.3,0-0.6,0.3-0.6,0.6V50h-0.4v-2.2h2.2V50z M27.9,32.8V50h-3.1v-2.9c0-0.4-0.3-0.7-0.7-0.7h-3.6
	c-0.4,0-0.7,0.3-0.7,0.7V50h-3.1V25.5h11.1L27.9,32.8z M28.6,24.2H23v-4.9h11.1v12.9h-4.9v-2.2h2c0.4,0.1,0.7-0.2,0.8-0.5
	c0.1-0.4-0.2-0.7-0.5-0.8c0,0-0.1,0-0.1,0h-2.1v-2.2h2c0.4,0,0.7-0.3,0.7-0.7l0,0c0-0.4-0.3-0.7-0.7-0.7h-2v-0.2
	C29.3,24.5,29,24.2,28.6,24.2L28.6,24.2z M40.4,50H29.2V33.5h11.1V50z M46.6,50h-4.9V32c0.1-0.4-0.2-0.7-0.5-0.8s-0.7,0.2-0.8,0.5
	c0,0,0,0.1,0,0.1c0,0,0,0.1,0,0.1v0.2H39V32c0-0.4-0.2-0.7-0.6-0.8s-0.7,0.2-0.8,0.6c0,0,0,0.1,0,0.1v0.2h-2.2V15.7h11.2L46.6,50
	L46.6,50z"/>
<linearGradient id="SVGID_2_" gradientUnits="userSpaceOnUse" x1="31.7667" y1="808.2512" x2="33.0967" y2="808.2512" gradientTransform="matrix(1 0 0 1 -0.29 -766.59)">
	<stop  offset="0" style="stop-color:#188AC7"/>
	<stop  offset="1" style="stop-color:#85B8DC"/>
</linearGradient>
<path class="st1" d="M32.1,48.7c0.4,0,0.7-0.3,0.7-0.6c0,0,0,0,0,0l0,0V35.5c0.1-0.4-0.1-0.7-0.5-0.8c0,0,0,0-0.1,0
	c-0.4-0.1-0.7,0.2-0.8,0.5c0,0,0,0,0,0c0,0.1,0,0.2,0,0.2V48C31.5,48.3,31.7,48.6,32.1,48.7C32.1,48.7,32.1,48.7,32.1,48.7z"/>
<linearGradient id="SVGID_3_" gradientUnits="userSpaceOnUse" x1="34.4367" y1="808.2947" x2="35.7667" y2="808.2947" gradientTransform="matrix(1 0 0 1 -0.29 -766.59)">
	<stop  offset="0" style="stop-color:#188AC7"/>
	<stop  offset="1" style="stop-color:#85B8DC"/>
</linearGradient>
<path class="st2" d="M34.8,48.7c0.4,0,0.7-0.3,0.7-0.7V35.5c0-0.4-0.2-0.7-0.6-0.7c0,0,0,0,0,0c-0.4,0-0.7,0.2-0.7,0.6c0,0,0,0,0,0
	c0,0,0,0.1,0,0.1V48C34.1,48.3,34.4,48.6,34.8,48.7C34.8,48.7,34.8,48.7,34.8,48.7z"/>
<linearGradient id="SVGID_4_" gradientUnits="userSpaceOnUse" x1="37.0964" y1="808.3267" x2="38.4467" y2="808.3267" gradientTransform="matrix(1 0 0 1 -0.29 -766.59)">
	<stop  offset="0" style="stop-color:#188AC7"/>
	<stop  offset="1" style="stop-color:#85B8DC"/>
</linearGradient>
<path class="st3" d="M37.5,48.7c0.4,0,0.7-0.3,0.7-0.7V35.5c0-0.4-0.3-0.7-0.7-0.7c-0.4,0-0.7,0.3-0.7,0.7V48
	C36.8,48.3,37.1,48.7,37.5,48.7C37.5,48.7,37.5,48.7,37.5,48.7z"/>
<linearGradient id="SVGID_5_" gradientUnits="userSpaceOnUse" x1="37.9967" y1="785.5727" x2="39.3267" y2="785.5727" gradientTransform="matrix(1 0 0 1 -0.29 -766.59)">
	<stop  offset="0" style="stop-color:#188AC7"/>
	<stop  offset="1" style="stop-color:#85B8DC"/>
</linearGradient>
<path class="st4" d="M38.4,20.1c0.4,0,0.7-0.3,0.7-0.7l0,0l0,0v-0.9c0-0.4-0.2-0.7-0.6-0.8c-0.4,0-0.7,0.2-0.8,0.6c0,0,0,0.1,0,0.1
	v0.9C37.7,19.8,38,20.1,38.4,20.1C38.3,20.1,38.4,20.1,38.4,20.1z"/>
<linearGradient id="SVGID_6_" gradientUnits="userSpaceOnUse" x1="40.6667" y1="785.5613" x2="41.9967" y2="785.5613" gradientTransform="matrix(1 0 0 1 -0.29 -766.59)">
	<stop  offset="0" style="stop-color:#188AC7"/>
	<stop  offset="1" style="stop-color:#85B8DC"/>
</linearGradient>
<path class="st5" d="M41,20.1c0.4,0,0.6-0.3,0.6-0.7v-0.9c0.1-0.4-0.2-0.7-0.5-0.8c-0.4-0.1-0.7,0.2-0.8,0.5c0,0,0,0.1,0,0.1
	c0,0,0,0.1,0,0.1v0.9C40.3,19.8,40.6,20.1,41,20.1C41,20.1,41,20.1,41,20.1z"/>
<linearGradient id="SVGID_7_" gradientUnits="userSpaceOnUse" x1="43.3367" y1="785.6166" x2="44.6767" y2="785.6166" gradientTransform="matrix(1 0 0 1 -0.29 -766.59)">
	<stop  offset="0" style="stop-color:#188AC7"/>
	<stop  offset="1" style="stop-color:#85B8DC"/>
</linearGradient>
<path class="st6" d="M43.7,20.1c0.4,0,0.7-0.3,0.7-0.7l0,0l0,0v-0.9c0-0.4-0.3-0.7-0.7-0.7c-0.4,0-0.7,0.3-0.7,0.7v0.9
	C43.1,19.8,43.4,20.1,43.7,20.1L43.7,20.1z"/>
<linearGradient id="SVGID_8_" gradientUnits="userSpaceOnUse" x1="37.9967" y1="790.0229" x2="39.3267" y2="790.0229" gradientTransform="matrix(1 0 0 1 -0.29 -766.59)">
	<stop  offset="0" style="stop-color:#188AC7"/>
	<stop  offset="1" style="stop-color:#85B8DC"/>
</linearGradient>
<path class="st7" d="M38.4,24.6c0.4,0,0.7-0.3,0.7-0.7l0,0l0,0V23c0-0.4-0.2-0.7-0.6-0.8s-0.7,0.2-0.8,0.6l0,0c0,0,0,0.1,0,0.1v0.9
	C37.7,24.3,38,24.6,38.4,24.6C38.4,24.6,38.4,24.6,38.4,24.6z"/>
<linearGradient id="SVGID_9_" gradientUnits="userSpaceOnUse" x1="40.6667" y1="790.0107" x2="41.9967" y2="790.0107" gradientTransform="matrix(1 0 0 1 -0.29 -766.59)">
	<stop  offset="0" style="stop-color:#188AC7"/>
	<stop  offset="1" style="stop-color:#85B8DC"/>
</linearGradient>
<path class="st8" d="M41,24.6c0.4,0,0.7-0.3,0.7-0.7c0,0,0,0,0,0V23c0.1-0.4-0.2-0.7-0.5-0.8c-0.4-0.1-0.7,0.2-0.8,0.5
	c0,0,0,0.1,0,0.1c0,0,0,0.1,0,0.1v0.9C40.4,24.3,40.7,24.6,41,24.6z"/>
<linearGradient id="SVGID_10_" gradientUnits="userSpaceOnUse" x1="43.3367" y1="790.0667" x2="44.6767" y2="790.0667" gradientTransform="matrix(1 0 0 1 -0.29 -766.59)">
	<stop  offset="0" style="stop-color:#188AC7"/>
	<stop  offset="1" style="stop-color:#85B8DC"/>
</linearGradient>
<path class="st9" d="M43.7,24.6c0.4,0,0.7-0.3,0.7-0.7l0,0l0,0V23c0-0.4-0.3-0.7-0.7-0.7c-0.4,0-0.7,0.3-0.7,0.7v0.9
	C43.1,24.3,43.4,24.6,43.7,24.6z"/>
<linearGradient id="SVGID_11_" gradientUnits="userSpaceOnUse" x1="37.9967" y1="794.4727" x2="39.3267" y2="794.4727" gradientTransform="matrix(1 0 0 1 -0.29 -766.59)">
	<stop  offset="0" style="stop-color:#188AC7"/>
	<stop  offset="1" style="stop-color:#85B8DC"/>
</linearGradient>
<path class="st10" d="M38.4,29c0.4,0,0.7-0.3,0.7-0.7l0,0l0,0v-0.9c0-0.4-0.2-0.7-0.6-0.8s-0.7,0.2-0.8,0.6c0,0,0,0.1,0,0.1v0.9
	C37.7,28.7,38,29,38.4,29C38.3,29,38.4,29,38.4,29z"/>
<linearGradient id="SVGID_12_" gradientUnits="userSpaceOnUse" x1="40.6667" y1="794.4607" x2="41.9967" y2="794.4607" gradientTransform="matrix(1 0 0 1 -0.29 -766.59)">
	<stop  offset="0" style="stop-color:#188AC7"/>
	<stop  offset="1" style="stop-color:#85B8DC"/>
</linearGradient>
<path class="st11" d="M41,29c0.4,0,0.6-0.3,0.6-0.7v-0.9c0.1-0.4-0.2-0.7-0.5-0.8s-0.7,0.2-0.8,0.5c0,0,0,0.1,0,0.1c0,0,0,0.1,0,0.1
	v0.9C40.3,28.7,40.6,29,41,29L41,29L41,29z"/>
<linearGradient id="SVGID_13_" gradientUnits="userSpaceOnUse" x1="43.3367" y1="794.5167" x2="44.6767" y2="794.5167" gradientTransform="matrix(1 0 0 1 -0.29 -766.59)">
	<stop  offset="0" style="stop-color:#188AC7"/>
	<stop  offset="1" style="stop-color:#85B8DC"/>
</linearGradient>
<path class="st12" d="M43.7,29c0.4,0,0.7-0.3,0.7-0.7l0,0l0,0v-0.9c0-0.4-0.3-0.7-0.7-0.7c-0.4,0-0.7,0.3-0.7,0.7v0.9
	C43.1,28.7,43.4,29,43.7,29L43.7,29z"/>
<linearGradient id="SVGID_14_" gradientUnits="userSpaceOnUse" x1="19.2967" y1="796.2648" x2="20.6367" y2="796.2648" gradientTransform="matrix(1 0 0 1 -0.29 -766.59)">
	<stop  offset="0" style="stop-color:#188AC7"/>
	<stop  offset="1" style="stop-color:#85B8DC"/>
</linearGradient>
<path class="st13" d="M19.7,30.8c0.4,0,0.7-0.3,0.7-0.7l0,0l0,0v-0.9c0-0.4-0.2-0.7-0.6-0.7c-0.4,0-0.7,0.2-0.7,0.6v1
	C19,30.5,19.3,30.8,19.7,30.8C19.7,30.8,19.7,30.8,19.7,30.8z"/>
<linearGradient id="SVGID_15_" gradientUnits="userSpaceOnUse" x1="21.9667" y1="796.2623" x2="23.3067" y2="796.2623" gradientTransform="matrix(1 0 0 1 -0.29 -766.59)">
	<stop  offset="0" style="stop-color:#188AC7"/>
	<stop  offset="1" style="stop-color:#85B8DC"/>
</linearGradient>
<path class="st14" d="M22.3,30.8c0.4,0,0.7-0.3,0.7-0.7v-0.9c0-0.4-0.2-0.7-0.6-0.7c-0.4,0-0.7,0.2-0.7,0.6v1
	C21.7,30.5,22,30.8,22.3,30.8L22.3,30.8L22.3,30.8z"/>
<linearGradient id="SVGID_16_" gradientUnits="userSpaceOnUse" x1="24.6367" y1="796.3017" x2="25.9767" y2="796.3017" gradientTransform="matrix(1 0 0 1 -0.29 -766.59)">
	<stop  offset="0" style="stop-color:#188AC7"/>
	<stop  offset="1" style="stop-color:#85B8DC"/>
</linearGradient>
<path class="st15" d="M25,30.8c0.4,0,0.7-0.3,0.7-0.7l0,0l0,0v-0.9c0-0.4-0.3-0.7-0.7-0.7c-0.4,0-0.7,0.3-0.7,0.7l0,0v0.9
	C24.3,30.5,24.6,30.8,25,30.8L25,30.8z"/>
<linearGradient id="SVGID_17_" gradientUnits="userSpaceOnUse" x1="19.2967" y1="800.7148" x2="20.6367" y2="800.7148" gradientTransform="matrix(1 0 0 1 -0.29 -766.59)">
	<stop  offset="0" style="stop-color:#188AC7"/>
	<stop  offset="1" style="stop-color:#85B8DC"/>
</linearGradient>
<path class="st16" d="M19.7,35.3c0.4,0,0.7-0.3,0.7-0.7l0,0l0,0v-0.9c0-0.4-0.2-0.7-0.6-0.7c-0.4,0-0.7,0.2-0.7,0.6l0,0v1
	C19,35,19.3,35.3,19.7,35.3C19.7,35.3,19.7,35.3,19.7,35.3z"/>
<linearGradient id="SVGID_18_" gradientUnits="userSpaceOnUse" x1="21.9667" y1="800.7123" x2="23.3067" y2="800.7123" gradientTransform="matrix(1 0 0 1 -0.29 -766.59)">
	<stop  offset="0" style="stop-color:#188AC7"/>
	<stop  offset="1" style="stop-color:#85B8DC"/>
</linearGradient>
<path class="st17" d="M22.3,35.3c0.4,0,0.7-0.3,0.7-0.7v-0.9c0-0.4-0.2-0.7-0.6-0.7c-0.4,0-0.7,0.2-0.7,0.6l0,0v1
	C21.7,34.9,22,35.2,22.3,35.3L22.3,35.3L22.3,35.3z"/>
<linearGradient id="SVGID_19_" gradientUnits="userSpaceOnUse" x1="24.6367" y1="800.7516" x2="25.9767" y2="800.7516" gradientTransform="matrix(1 0 0 1 -0.29 -766.59)">
	<stop  offset="0" style="stop-color:#188AC7"/>
	<stop  offset="1" style="stop-color:#85B8DC"/>
</linearGradient>
<path class="st18" d="M25,35.3c0.4,0,0.7-0.3,0.7-0.7l0,0l0,0v-0.9c0-0.4-0.3-0.7-0.7-0.7c-0.4,0-0.7,0.3-0.7,0.7l0,0v0.9
	C24.3,35,24.6,35.3,25,35.3L25,35.3z"/>
<linearGradient id="SVGID_20_" gradientUnits="userSpaceOnUse" x1="19.2967" y1="805.1648" x2="20.6367" y2="805.1648" gradientTransform="matrix(1 0 0 1 -0.29 -766.59)">
	<stop  offset="0" style="stop-color:#188AC7"/>
	<stop  offset="1" style="stop-color:#85B8DC"/>
</linearGradient>
<path class="st19" d="M19.7,39.7c0.4,0,0.7-0.3,0.7-0.6v-0.9c0-0.4-0.2-0.7-0.6-0.7c-0.4,0-0.7,0.2-0.7,0.6l0,0v1.1
	C19,39.4,19.3,39.7,19.7,39.7z"/>
<linearGradient id="SVGID_21_" gradientUnits="userSpaceOnUse" x1="21.9667" y1="805.1624" x2="23.3067" y2="805.1624" gradientTransform="matrix(1 0 0 1 -0.29 -766.59)">
	<stop  offset="0" style="stop-color:#188AC7"/>
	<stop  offset="1" style="stop-color:#85B8DC"/>
</linearGradient>
<path class="st20" d="M22.3,39.7c0.4,0,0.7-0.3,0.7-0.7l0,0l0,0v-0.9c0-0.4-0.2-0.7-0.6-0.7c-0.4,0-0.7,0.2-0.7,0.6v1.1
	C21.7,39.4,22,39.7,22.3,39.7z"/>
<linearGradient id="SVGID_22_" gradientUnits="userSpaceOnUse" x1="24.6367" y1="805.2023" x2="25.9767" y2="805.2023" gradientTransform="matrix(1 0 0 1 -0.29 -766.59)">
	<stop  offset="0" style="stop-color:#188AC7"/>
	<stop  offset="1" style="stop-color:#85B8DC"/>
</linearGradient>
<path class="st21" d="M25,39.7c0.4,0,0.7-0.3,0.7-0.6v-0.9c0-0.4-0.3-0.7-0.7-0.7c-0.4,0-0.7,0.3-0.7,0.7l0,0v0.9
	C24.4,39.4,24.7,39.7,25,39.7z"/>
<linearGradient id="SVGID_23_" gradientUnits="userSpaceOnUse" x1="19.2967" y1="809.6767" x2="20.6367" y2="809.6767" gradientTransform="matrix(1 0 0 1 -0.29 -766.59)">
	<stop  offset="0" style="stop-color:#188AC7"/>
	<stop  offset="1" style="stop-color:#85B8DC"/>
</linearGradient>
<path class="st22" d="M19.7,44.2c0.4,0,0.7-0.3,0.7-0.7l0,0v-0.8c0-0.4-0.3-0.7-0.7-0.7c-0.4,0-0.7,0.3-0.7,0.7v0.9
	C19,43.9,19.3,44.2,19.7,44.2z"/>
<linearGradient id="SVGID_24_" gradientUnits="userSpaceOnUse" x1="21.9667" y1="809.6742" x2="23.3067" y2="809.6742" gradientTransform="matrix(1 0 0 1 -0.29 -766.59)">
	<stop  offset="0" style="stop-color:#188AC7"/>
	<stop  offset="1" style="stop-color:#85B8DC"/>
</linearGradient>
<path class="st23" d="M22.3,44.2c0.4,0,0.7-0.3,0.7-0.7l0,0v-0.8c0-0.4-0.3-0.7-0.7-0.7c-0.4,0-0.7,0.3-0.7,0.7v0.9
	C21.7,43.9,22,44.2,22.3,44.2z"/>
<linearGradient id="SVGID_25_" gradientUnits="userSpaceOnUse" x1="24.6367" y1="809.6767" x2="25.9767" y2="809.6767" gradientTransform="matrix(1 0 0 1 -0.29 -766.59)">
	<stop  offset="0" style="stop-color:#188AC7"/>
	<stop  offset="1" style="stop-color:#85B8DC"/>
</linearGradient>
<path class="st24" d="M25,44.2c0.4,0,0.7-0.3,0.7-0.7l0,0v-0.8c0-0.4-0.3-0.7-0.7-0.7c-0.4,0-0.7,0.3-0.7,0.7v0.9
	C24.4,43.9,24.6,44.2,25,44.2z"/>
<linearGradient id="SVGID_26_" gradientUnits="userSpaceOnUse" x1="43.3367" y1="798.9717" x2="44.6767" y2="798.9717" gradientTransform="matrix(1 0 0 1 -0.29 -766.59)">
	<stop  offset="0" style="stop-color:#188AC7"/>
	<stop  offset="1" style="stop-color:#85B8DC"/>
</linearGradient>
<path class="st25" d="M43.7,33.5c0.4,0,0.7-0.3,0.7-0.7l0,0v-0.9c0-0.4-0.3-0.7-0.7-0.7c-0.4,0-0.7,0.3-0.7,0.7l0,0v0.9
	C43.1,33.2,43.4,33.5,43.7,33.5z"/>
<linearGradient id="SVGID_27_" gradientUnits="userSpaceOnUse" x1="43.3367" y1="803.4217" x2="44.6767" y2="803.4217" gradientTransform="matrix(1 0 0 1 -0.29 -766.59)">
	<stop  offset="0" style="stop-color:#188AC7"/>
	<stop  offset="1" style="stop-color:#85B8DC"/>
</linearGradient>
<path class="st26" d="M43.7,37.9c0.4,0,0.7-0.3,0.7-0.7l0,0v-0.9c0-0.4-0.3-0.7-0.7-0.7c-0.4,0-0.7,0.3-0.7,0.7v0.9
	C43.1,37.6,43.4,37.9,43.7,37.9z"/>
<linearGradient id="SVGID_28_" gradientUnits="userSpaceOnUse" x1="43.3367" y1="807.8716" x2="44.6767" y2="807.8716" gradientTransform="matrix(1 0 0 1 -0.29 -766.59)">
	<stop  offset="0" style="stop-color:#188AC7"/>
	<stop  offset="1" style="stop-color:#85B8DC"/>
</linearGradient>
<path class="st27" d="M43.7,42.4c0.4,0,0.7-0.3,0.7-0.7l0,0v-0.9c0-0.4-0.3-0.7-0.7-0.7c-0.4,0-0.7,0.3-0.7,0.7v0.9
	C43.1,42.1,43.4,42.4,43.7,42.4z"/>
<linearGradient id="SVGID_29_" gradientUnits="userSpaceOnUse" x1="43.3367" y1="812.3217" x2="44.6767" y2="812.3217" gradientTransform="matrix(1 0 0 1 -0.29 -766.59)">
	<stop  offset="0" style="stop-color:#188AC7"/>
	<stop  offset="1" style="stop-color:#85B8DC"/>
</linearGradient>
<path class="st28" d="M43.7,46.8c0.4,0,0.7-0.3,0.7-0.7v-0.9c0-0.4-0.3-0.7-0.7-0.7c-0.4,0-0.7,0.3-0.7,0.7l0,0v0.9
	C43.1,46.5,43.4,46.8,43.7,46.8z"/>
<linearGradient id="SVGID_30_" gradientUnits="userSpaceOnUse" x1="25.5367" y1="788.7316" x2="32.2067" y2="788.7316" gradientTransform="matrix(1 0 0 1 -0.29 -766.59)">
	<stop  offset="0" style="stop-color:#188AC7"/>
	<stop  offset="1" style="stop-color:#85B8DC"/>
</linearGradient>
<path class="st29" d="M31.9,22.1c0-0.4-0.3-0.7-0.7-0.7c0,0,0,0,0,0h-5.3c-0.4,0-0.6,0.4-0.6,0.7c0,0,0,0,0,0c0,0.3,0.3,0.6,0.6,0.6
	h5.3C31.6,22.8,31.9,22.5,31.9,22.1L31.9,22.1z"/>
<circle class="st30" cx="32.1" cy="33.1" r="31.1"/>
</svg>
